<svg id="Layer_3" enable-background="new 0 0 64 64" height="512" viewBox="0 0 64 64" width="512" xmlns="http://www.w3.org/2000/svg"><path d="m52 34h5c2.761 0 5 2.239 5 5v14c0 2.761-2.239 5-5 5h-7 .001c.873-1.163 1.499-2.522 1.799-4h.2 4c1.105 0 2-.895 2-2v-12c0-1.105-.895-2-2-2h-4z" fill="#4c4b4c"/><path d="m42 62h-6c-5.523 0-10-4.477-10-10v-22h26v22c0 5.523-4.477 10-10 10z" fill="#979598"/><path d="m49 52v-22h-23v22c0 5.523 4.477 10 10 10h3c5.523 0 10-4.477 10-10z" fill="#c9c6ca"/><path d="m2 2h20v4h-20z" fill="#717072"/><path d="m2 2h17v4h-17z" fill="#979598"/><path d="m29 2h18v4h-18z" fill="#717072"/><path d="m29 2h15v4h-15z" fill="#979598"/><path d="m31 6v3c0 3.866 3.134 7 7 7 3.866 0 7-3.134 7-7v-3z" fill="#979598"/><path d="m36.5 15.835c3.144-.687 5.5-3.484 5.5-6.835v-3h-11v3c0 3.351 2.356 6.148 5.5 6.835z" fill="#c9c6ca"/><g fill="#e3aa75"><path d="m32 13v9.117c0 1.072.895 1.941 2 1.941 1.105 0 2-.869 2-1.941 0-1.072.895-1.941 2-1.941 1.105 0 2 .869 2 1.941v1.941c0 1.073.895 1.942 2 1.942 1.105 0 2-.869 2-1.941v-11.059c-1.225 1.973-3.454 3.293-6 3.293-2.547 0-4.775-1.32-6-3.293z"/><ellipse cx="14" cy="23" rx="8" ry="11"/><ellipse cx="10" cy="51" rx="8" ry="11"/></g><path d="m42 63h-6c-6.065 0-11-4.935-11-11v-22c0-.552.447-1 1-1h26c.553 0 1 .448 1 1v22c0 6.065-4.935 11-11 11zm-15-32v21c0 4.963 4.037 9 9 9h6c4.963 0 9-4.037 9-9v-21z"/><path d="m56 55h-4v-2h4c.552 0 1-.448 1-1v-12c0-.552-.448-1-1-1h-4v-2h4c1.654 0 3 1.346 3 3v12c0 1.654-1.346 3-3 3z"/><path d="m57 59h-7v-2h7c2.206 0 4-1.794 4-4v-14c0-2.206-1.794-4-4-4h-5v-2h5c3.309 0 6 2.691 6 6v14c0 3.309-2.691 6-6 6z"/><path d="m26 35h26v2h-26z"/><path d="m47 39h2v8h-2z"/><path d="m47 49h2v2h-2z"/><path d="m22 7h-20c-.553 0-1-.448-1-1v-4c0-.552.447-1 1-1h20c.553 0 1 .448 1 1v4c0 .552-.447 1-1 1zm-19-2h18v-2h-18z"/><path d="m47 7h-18c-.553 0-1-.448-1-1v-4c0-.552.447-1 1-1h18c.553 0 1 .448 1 1v4c0 .552-.447 1-1 1zm-17-2h16v-2h-16z"/><path d="m22 3h7v2h-7z"/><path d="m38 17c-4.411 0-8-3.589-8-8v-3h2v3c0 3.309 2.691 6 6 6s6-2.691 6-6v-3h2v3c0 4.411-3.589 8-8 8z"/><path d="m42 27c-1.654 0-3-1.346-3-3v-2c0-.551-.448-1-1-1s-1 .449-1 1c0 1.654-1.346 3-3 3s-3-1.346-3-3v-9.393h2v9.393c0 .551.448 1 1 1s1-.449 1-1c0-1.654 1.346-3 3-3s3 1.346 3 3v2c0 .551.448 1 1 1s1-.449 1-1v-11.393h2v11.393c0 1.654-1.346 3-3 3z"/><path d="m8.241 62.173-1.414-1.414 3.052-3.052c.713-.713 1.121-1.699 1.121-2.707s-.408-1.994-1.121-2.707l-1.172-1.172c-1.085-1.085-1.707-2.587-1.707-4.121s.622-3.036 1.707-4.121l3.052-3.052 1.414 1.414-3.052 3.052c-.713.713-1.121 1.699-1.121 2.707s.408 1.994 1.121 2.707l1.172 1.172c1.085 1.085 1.707 2.587 1.707 4.121s-.622 3.036-1.707 4.121z"/><path d="m10 63c-4.963 0-9-5.383-9-12s4.037-12 9-12 9 5.383 9 12-4.037 12-9 12zm0-22c-3.859 0-7 4.486-7 10s3.141 10 7 10 7-4.486 7-10-3.141-10-7-10z"/><path d="m12.241 34.173-1.414-1.414 3.052-3.052c.723-.723 1.121-1.685 1.121-2.707s-.398-1.984-1.121-2.707l-1.172-1.172c-1.101-1.1-1.707-2.564-1.707-4.121s.606-3.021 1.707-4.121l3.052-3.052 1.414 1.414-3.052 3.052c-.723.723-1.121 1.685-1.121 2.707s.398 1.984 1.121 2.707l1.172 1.172c1.101 1.1 1.707 2.564 1.707 4.121s-.606 3.021-1.707 4.121z"/><path d="m14 35c-4.963 0-9-5.383-9-12s4.037-12 9-12 9 5.383 9 12-4.037 12-9 12zm0-22c-3.859 0-7 4.486-7 10s3.141 10 7 10 7-4.486 7-10-3.141-10-7-10z"/></svg>