<svg id="Capa_1" enable-background="new 0 0 435.526 435.526" height="512" viewBox="0 0 435.526 435.526" width="512" xmlns="http://www.w3.org/2000/svg"><g><g id="Page-1_37_"><g><g id="Icons_37_" transform="translate(0 1)"><g id="Shape_37_"><path d="m236.746 294.476-36.075 24.969-6.025 4.137-6.025 4.137-13.574 9.364-5.952 4.137-5.807 4.428-98.571 75.199c-15.061 10.482-35.592 7.979-47.693-5.814s-11.912-34.475.44-48.044l146.913-155.043z" fill="#6d4122"/></g><g><path d="m165.657 213.418-149.466 152.129c-12.596 13.271-14.802 31.599-5.081 42.68 9.721 11.082 28.178 11.289 42.979.534l103.241-80.949 25.097-18.219 41.301-29.955z" fill="#91562d"/></g><g><path clip-rule="evenodd" d="m351.299 236.231c-22.025 4.873-45.062 1.849-65.083-8.543-45.175-22.951-71.424-78.755-58.905-123.827 7.593-25.828 29.413-44.952 56.014-49.093 21.638-3.782 44.627-2.421 66.109-6.793 15.025-2.551 29.139-8.93 40.981-18.522 6.091-5.187 11.44-11.187 15.896-17.832.272-.412.617-.909 1.016-1.476 1.693-2.591 4.797-3.887 7.83-3.267 3.033.619 5.381 3.027 5.922 6.075 2.16 15.296 3.483 30.698 3.965 46.138v.414c-.387 7.089-3.332 31.38-25.426 36.913-16.25 4.023-47.29 19.09-28.895 42.667 13.037 16.767 42.459 8.625 50.363-5.392l.514.171c-6.819 46.598-25.035 91.39-70.301 102.367z" fill="#f57c00" fill-rule="evenodd"/></g><g><path clip-rule="evenodd" d="m351.299 236.231c-22.025 4.873-45.062 1.849-65.083-8.543-45.175-22.951-71.424-78.755-58.905-123.827 7.593-25.828 29.413-44.952 56.014-49.093 21.638-3.782 44.627-2.421 66.109-6.793 15.025-2.551 29.139-8.93 40.981-18.522 6.091-5.187 11.44-11.187 15.896-17.832.272-.412.617-.909 1.016-1.476 1.693-2.591 4.797-3.887 7.83-3.267 3.033.619 5.381 3.027 5.922 6.075 2.16 15.296 3.483 30.698 3.965 46.138v.414c-.387 7.089-3.332 31.38-25.426 36.913-16.25 4.023-47.29 19.09-28.895 42.667 13.037 16.767 42.459 8.625 50.363-5.392l.514.171c-6.819 46.598-25.035 91.39-70.301 102.367z" fill="#f57c00" fill-rule="evenodd"/></g><g><path clip-rule="evenodd" d="m420.17 65.904v.436c-.283 6.17-2.55 25.405-17.421 33.897-22.38-2.613-153.125-12.92-149.938 108.588-23.445-27.365-34.422-65.545-25.568-98.136 7.139-25.607 28.456-44.766 54.677-49.14 21.106-3.774 43.487-2.395 64.452-6.75 14.718-2.597 28.508-8.975 40.016-18.509 5.967-5.21 11.187-11.219 15.511-17.856.299-.505.63-.99.992-1.452 1.613-2.588 4.667-3.897 7.653-3.282 2.987.615 5.274 3.026 5.732 6.04 2.142 15.305 3.441 30.716 3.894 46.164z" fill="#ff9801" fill-rule="evenodd"/></g><g><path d="m221.516 283.909-48.661-55.491c-11.239-12.817-12.741-31.489-3.695-45.937l22.028-35.179c1.295-2.069 3.492-3.403 5.925-3.599s4.815.771 6.424 2.606l103.393 117.904c1.611 1.835 2.258 4.323 1.746 6.711-.512 2.387-2.122 4.392-4.344 5.405l-37.753 17.242c-15.507 7.083-33.823 3.156-45.063-9.662z" fill="#37474f"/></g><g><path d="m210.302 271.121-40.887-46.626c-9.465-12.239-9.383-29.35.2-41.496l23.283-33.746c1.137-1.966 3.097-3.318 5.339-3.683s4.529.297 6.231 1.801l86.876 99.068c1.269 1.884 1.626 4.237.972 6.412s-2.25 3.941-4.348 4.812l-36.498 18.678c-13.295 7.915-30.27 5.762-41.168-5.22z" fill="#607d8b"/></g><g><path clip-rule="evenodd" d="m420.17 65.904v.436c-.29 6.17-2.613 25.405-17.856 33.897-10.843-1.207-21.76-1.62-32.664-1.234 2.903-1.089 5.734-1.96 8.202-2.613 22.066-5.517 25.042-29.76 25.405-36.873v-.437c-.435-12.993-1.379-25.986-3.049-38.978.452-.526.864-1.084 1.234-1.669.307-.506.646-.991 1.016-1.452 1.676-2.596 4.77-3.901 7.799-3.292s5.377 3.009 5.92 6.051c2.195 15.3 3.528 30.713 3.993 46.164z" fill="#f57c00" fill-rule="evenodd"/></g></g><g id="Layer_11_37_" transform="translate(1)"><g><path d="m331.947 246.3c-16.495 0-32.89-3.941-47.691-11.625-47.946-24.356-76.038-83.675-62.559-132.21 8.382-28.488 32.667-49.771 61.893-54.326 10.505-1.836 21.421-2.499 31.983-3.137 11.816-.716 22.974-1.393 33.798-3.594 14-2.382 27.007-8.262 37.852-17.048 5.444-4.636 10.349-10.136 14.446-16.24l1.092-1.591c3.218-4.93 9.286-7.461 15.233-6.217 5.99 1.223 10.548 5.905 11.611 11.923 2.233 15.747 3.594 31.536 4.076 47.174.007.209.007.833-.007 1.038-.468 8.52-4.076 36.839-30.906 43.558-11.746 2.906-25.724 10.363-28.524 18.465-.475 1.389-1.935 5.61 3.587 12.692 4.99 6.415 12.993 6.823 17.275 6.511 8.832-.652 17.877-5.38 21.046-11.001 1.715-3.03 5.331-4.42 8.62-3.321 3.339 1.113 5.905 4.629 5.394 8.109-9.059 61.914-34.556 98.377-75.775 108.364-.043.014-.092.021-.142.035-7.36 1.633-14.845 2.441-22.302 2.441zm20.734-9.526h.071zm62.591-222.258-1.503 1.627c-4.884 7.276-10.675 13.773-17.267 19.387-12.915 10.466-28.247 17.395-44.473 20.149-11.59 2.36-23.782 3.101-35.577 3.814-10.626.645-20.663 1.255-30.494 2.97-23.838 3.714-43.53 20.975-50.307 43.994-11.689 42.116 13.078 93.89 55.24 115.304 18.515 9.612 39.858 12.412 60.152 7.939 30.757-7.485 51.334-33.599 61.329-77.732-4.962 2.286-10.512 3.768-16.197 4.186-12.263.907-23.13-3.491-29.793-12.068-8.57-10.984-7.918-20.393-5.855-26.355 6.691-19.369 35.471-27.003 38.731-27.811 17.175-4.303 19.592-24.253 19.926-30.264-.482-14.905-1.793-30.163-3.912-45.14z"/></g><g><path d="m249.424 305.375c-12.858 0-25.398-5.458-34.365-15.68l-48.662-55.495c-13.457-15.346-15.219-37.275-4.388-54.57l22.027-35.18c2.492-3.987 6.787-6.599 11.483-6.982 4.703-.393 9.367 1.513 12.476 5.058l103.395 117.902c3.105 3.544 4.366 8.407 3.381 13.014-.978 4.607-4.133 8.527-8.421 10.484l-37.76 17.246c-6.195 2.835-12.723 4.203-19.166 4.203zm-23.449-25.249c9.201 10.484 23.916 13.61 36.59 7.847l37.753-17.246 5.614-5.515-5.458 4.785-103.395-117.902c0 .004-.737.057-.737.06l-22.027 35.18c-7.404 11.82-6.199 26.808 2.998 37.296z"/></g><g><path d="m43.093 435.526c-12.104 0-24.019-5.061-32.5-14.73-14.524-16.566-14.308-41.361.496-57.672l147-155.176c2.764-2.92 7.351-3.034 10.261-.28 2.913 2.757 3.037 7.351.28 10.264l-146.894 155.06c-9.74 10.739-9.885 27.22-.227 38.235 9.665 11.008 26.029 13.043 38.058 4.678l104.15-79.419 67.9-46.975c3.275-2.29 7.819-1.467 10.094 1.843 2.282 3.296 1.46 7.819-1.843 10.094l-67.617 46.777-104.146 79.419c-7.649 5.309-16.378 7.882-25.012 7.882z"/></g><g><path d="m193.684 331.822c-2.02 0-4.026-.836-5.462-2.474l-19.596-22.35c-2.644-3.013-2.343-7.599.673-10.243 3.013-2.644 7.595-2.346 10.243.673l19.596 22.35c2.644 3.013 2.343 7.599-.673 10.243-1.379 1.206-3.084 1.801-4.781 1.801z"/></g><g><path d="m168.123 349.515c-2.02 0-4.026-.836-5.462-2.474l-22.346-25.483c-2.644-3.013-2.343-7.599.673-10.243 3.009-2.644 7.599-2.346 10.243.673l22.346 25.483c2.644 3.013 2.343 7.599-.673 10.243-1.375 1.206-3.084 1.801-4.781 1.801z"/></g></g></g></g></g></svg>